<?xml version="1.0"?>
<svg width="256" height="256" xmlns="http://www.w3.org/2000/svg" xmlns:svg="http://www.w3.org/2000/svg"
  enable-background="new 0 0 256 256" version="1.1" xml:space="preserve">
  <metadata>Svg Vector Icons : http://www.onlinewebfonts.com/icon</metadata>
  <g class="layer">
    <title>Layer 1</title>
    <g id="svg_1">
      <g id="svg_2">
        <path
          d="m36.85,19.01c-15.39,0 -26.91,0.26 -27.99,0.67c-2.59,0.8 -5.71,4.26 -6.78,7.31c-0.97,2.39 -1.08,4.78 -1.08,29.76c0,30.17 0,29.76 3.44,31.89c2.26,1.33 2.91,1.2 6.89,-0.93c6.14,-3.32 9.48,-4.11 16.47,-3.72c6.89,0.41 10.66,1.72 16.25,5.72c3.77,2.8 9.26,9.57 11.52,14.22c6.03,12.35 6.36,28.04 1.08,40.8c-5.06,12.22 -14.42,20.46 -25.62,22.46c-6.14,1.2 -13.56,-0.13 -18.94,-3.46c-1.29,-0.8 -3.02,-1.72 -3.77,-1.85c-1.83,-0.54 -4.63,0.93 -6.03,3.19l-1.18,1.85l0.1,29.76l0.1,29.63l1.51,2.8c1.08,1.85 2.59,3.32 4.41,4.52l2.91,1.85l87.39,0l87.39,0l2.8,-1.85c1.72,-1.06 3.34,-2.8 4.41,-4.52l1.51,-2.8l0.22,-30.17c0.22,-27.5 0.32,-30.43 1.18,-31.89c2.16,-3.85 5.49,-3.98 11.41,-0.54c10.01,5.85 20.55,5.58 30.68,-0.93c15.92,-10.24 22.49,-35.22 14.42,-55.28c-6.03,-15.02 -16.9,-23.39 -30.46,-23.39c-6.24,0 -9.9,1.06 -15.72,4.52c-4.73,2.93 -5.16,2.93 -7.64,1.72c-3.67,-1.85 -3.55,-1.2 -3.87,-33.09l-0.22,-28.7l-1.51,-2.66c-0.75,-1.46 -2.37,-3.46 -3.55,-4.39l-2.16,-1.85l-27.87,-0.26l-121.72,-0.41l0.02,0.01zm108.98,34.53l23.03,31.44l-23.03,-31.44z"
          fill="green" id="svg_4" />
      </g>
    </g>
  </g>
</svg>
